PathFileType	4	(X/Y/Z)	C:/Users/opensim2020/Desktop/walking_exp_matlab/subject02_walking04_straight_02.trc																																																																																																																												
DataRate	CameraRate	NumFrames	NumMarkers	Units	OrigDataRate	OrigDataStartFrame	OrigNumFrames																																																																																																																								
100	100	5	42	mm	100	1523	220																																																																																																																								
Frame#	Time	LFHD			RFHD			LBHD			RBHD			C7			T10			CLAV			STRN			RBAK			LSHO			LUPA			LELB			LFRM			LWRA			LWRB			LFIN			RSHO			RUPA			RELB			RFRM			RWRA			RWRB			RFIN			LASI			RASI			LPSI			RPSI			LTHI			LKNE			LTIB			LANK			LHEE			LTOE			RTHI			RKNE			RTIB			RANK			RHEE			RTOE			*39			*40			*41		
		X1	Y1	Z1	X2	Y2	Z2	X3	Y3	Z3	X4	Y4	Z4	X5	Y5	Z5	X6	Y6	Z6	X7	Y7	Z7	X8	Y8	Z8	X9	Y9	Z9	X10	Y10	Z10	X11	Y11	Z11	X12	Y12	Z12	X13	Y13	Z13	X14	Y14	Z14	X15	Y15	Z15	X16	Y16	Z16	X17	Y17	Z17	X18	Y18	Z18	X19	Y19	Z19	X20	Y20	Z20	X21	Y21	Z21	X22	Y22	Z22	X23	Y23	Z23	X24	Y24	Z24	X25	Y25	Z25	X26	Y26	Z26	X27	Y27	Z27	X28	Y28	Z28	X29	Y29	Z29	X30	Y30	Z30	X31	Y31	Z31	X32	Y32	Z32	X33	Y33	Z33	X34	Y34	Z34	X35	Y35	Z35	X36	Y36	Z36	X37	Y37	Z37	X38	Y38	Z38	X39	Y39	Z39	X40	Y40	Z40	X41	Y41	Z41	X42	Y42	Z42
																																																																																																																															
28	0.27	-870.29254	1747.5968	-1434.82507	-883.35785	1726.19897	-1293.10474	-1001.71655	1676.37402	-1455.6189	-1026.61243	1654.76758	-1316.30847	-1069.55774	1540.13879	-1374.19495	-1132.65259	1265.80566	-1348.89148	-935.68646	1463.32898	-1399.01196	-890.37445	1290.83557	-1390.67688	-1127.48218	1371.25232	-1294.96899	-1022.2298	1506.25525	-1559.68384	-1064.86096	1310.38708	-1638.12561	-1082.38525	1170.53503	-1657.5531	-1061.328	1040.46216	-1682.92114	-980.04346	925.15924	-1678.6676	-1033.46533	921.26123	-1698.1261	-1006.50159	860.83661	-1709.922	-970.85889	1506.81299	-1197.77954	-990.08167	1319.9248	-1102.19128	-976.66187	1173.57703	-1083.55371	-945.06989	1057.60449	-1064.73657	-899.23907	931.00745	-1084.94312	-941.93359	928.47205	-1046.45911	-902.04645	867.52734	-1045.96436	-924.47467	1001.47272	-1507.40491	-891.58923	984.21283	-1254.8125	-1122.14551	1045.79883	-1400.72461	-1109.89648	1045.96509	-1285.29492	-940.80054	698.65411	-1580.36768	-917.63757	507.28989	-1563.00183	-1016.93329	347.02811	-1542.47607	-1067.31238	130.6293	-1507.97107	-1088.41504	109.01096	-1446.33936	-943.1969	54.27552	-1561.64233	-965.7774	674.21729	-1199.81055	-982.89435	466.8508	-1253.41736	-1034.31677	284.56808	-1253.39087	-1068.55493	95.94309	-1300.00476	-1110.68591	43.87118	-1354.50891	-917.487	42.1275	-1299.08972	-977.61774	1814.07996	-1351.86499	-2845.6394	1033.84167	3357.104	NaN	NaN	NaN
29	0.28	-861.79034	1747.33337	-1436.76746	-874.41577	1726.30652	-1294.96399	-993.22229	1676.12805	-1456.86169	-1017.75995	1654.78833	-1317.4314	-1060.75122	1540.01501	-1375.1781	-1124.14319	1265.74927	-1350.18738	-926.85773	1463.20544	-1399.84021	-881.49445	1290.88281	-1391.08191	-1118.39966	1371.09351	-1295.33435	-1013.66815	1505.60669	-1560.5885	-1058.34448	1309.63733	-1637.75061	-1077.6178	1170.01147	-1656.40479	-1059.26733	1039.49536	-1680.91003	-980.55963	922.46466	-1676.11938	-1033.95911	919.60449	-1695.396	-1008.47931	858.49872	-1706.78564	-962.18988	1507.12781	-1198.6582	-978.96014	1320.06091	-1102.83606	-964.39752	1173.91943	-1083.77649	-931.03912	1058.43799	-1065.27185	-883.23315	932.81299	-1086.01343	-925.211	929.46332	-1047.59375	-884.50977	869.18152	-1047.04822	-914.55792	1001.58429	-1507.45471	-884.26929	983.19818	-1254.45544	-1114.02307	1046.19824	-1403.04419	-1102.22498	1045.66101	-1287.44421	-929.31757	699.9632	-1581.65991	-904.43591	507.49835	-1563.15991	-996.42346	341.69562	-1544.95337	-1036.02246	122.42273	-1513.60229	-1056.88	99.66885	-1452.41956	-907.63098	52.67987	-1566.68274	-961.401	674.11053	-1200.91589	-979.8725	466.35892	-1254.20752	-1032.73108	284.68604	-1253.96558	-1068.31067	96.14907	-1300.29834	-1110.61255	44.0935	-1354.78601	-917.81842	42.18619	-1298.96313	-968.61853	1813.9707	-1353.33289	-2845.13062	1033.68298	3360.23462	NaN	NaN	NaN
30	0.29	-853.19171	1746.91577	-1438.55835	-865.38409	1726.2063	-1296.70972	-984.69727	1675.77209	-1458.13232	-1008.87396	1654.75354	-1318.61755	-1051.96594	1539.83826	-1376.31714	-1115.6344	1265.59033	-1351.54395	-918.01794	1462.95044	-1400.79346	-872.51489	1290.51563	-1391.04346	-1109.78931	1371.09839	-1296.3053	-1004.96362	1504.82117	-1561.62939	-1051.93848	1309.09912	-1637.77795	-1072.95227	1169.48645	-1655.21619	-1057.25476	1038.58423	-1679.04504	-981.06226	919.86938	-1673.50623	-1034.6499	918.12073	-1692.8429	-1010.36365	856.26825	-1703.80627	-953.50836	1507.29199	-1199.63684	-969.4295	1320.20142	-1103.49231	-952.21075	1174.25513	-1084.0105	-917.31171	1059.28137	-1066.27136	-866.79718	934.39435	-1087.03931	-908.93585	930.24158	-1048.22473	-866.78278	870.85803	-1048.30322	-904.9953	1001.20874	-1507.27527	-876.83722	982.07361	-1254.02722	-1104.74146	1046.07227	-1405.1665	-1094.57312	1045.30066	-1289.67273	-918.01025	700.48181	-1582.64978	-891.66669	507.44614	-1563.28455	-976.11176	336.58673	-1547.51733	-1004.61127	114.85503	-1519.57227	-1024.93958	90.74422	-1458.74622	-872.25201	51.78422	-1571.9696	-957.0177	673.63605	-1201.91064	-976.91254	466.25674	-1254.94739	-1030.99988	284.75577	-1254.53442	-1067.98486	96.35654	-1300.58667	-1110.55408	44.27707	-1355.04382	-917.71368	41.98499	-1298.83325	-959.77252	1813.89514	-1355.16333	-2845.90381	1033.70386	3357.20532	NaN	NaN	NaN
31	0.3	-844.53607	1746.33447	-1440.39392	-856.34808	1725.9231	-1298.43848	-976.13177	1675.26843	-1459.42639	-999.93793	1654.61377	-1319.79858	-1043.12122	1539.46753	-1377.44934	-1107.15161	1265.27344	-1353.13831	-909.09802	1462.54163	-1401.75024	-863.58905	1290.3252	-1391.6377	-1101.00745	1370.7655	-1297.28418	-996.08942	1503.91956	-1562.66516	-1045.70593	1308.62244	-1637.97778	-1068.30969	1169.00732	-1654.15051	-1055.24341	1037.62927	-1677.15613	-981.5282	917.4115	-1671.15222	-1035.19885	916.67621	-1690.43481	-1012.1922	854.21216	-1700.89001	-944.81958	1507.33118	-1200.64087	-958.79565	1320.34729	-1104.44788	-939.93555	1174.49915	-1084.36792	-902.71924	1060.11487	-1066.68286	-850.6001	936.35016	-1088.47888	-892.02954	931.21991	-1049.69812	-849.03253	872.62555	-1049.67773	-895.08838	1000.61908	-1507.4895	-869.61743	981.25812	-1254.12878	-1095.98486	1045.7428	-1407.53662	-1086.88867	1044.81995	-1292.05432	-906.63599	701.20667	-1583.28442	-879.28027	507.0462	-1563.32251	-955.8623	331.61029	-1550.33093	-973.12579	108.19288	-1525.79492	-992.99445	82.83678	-1465.3656	-837.07477	51.26681	-1576.92468	-952.5835	673.28174	-1202.89417	-974.07495	465.93777	-1255.6261	-1029.26782	284.80707	-1255.14954	-1067.71423	96.56396	-1300.94495	-1110.46069	44.50404	-1355.34656	-917.68884	41.87141	-1298.71228	-950.85822	1813.67053	-1356.8562	-2845.81714	1033.78564	3357.08545	NaN	NaN	NaN
32	0.31	-835.89026	1745.6687	-1442.22864	-847.32635	1725.58264	-1300.26123	-967.5603	1674.61267	-1460.80823	-991.12543	1654.39685	-1321.12183	-1034.24438	1538.99243	-1378.64368	-1098.66235	1264.87634	-1354.88037	-900.19501	1461.98254	-1402.74683	-854.53503	1289.797	-1391.99927	-1092.80078	1370.60193	-1298.71143	-987.2113	1502.94629	-1563.79871	-1039.08472	1307.82007	-1637.86609	-1063.57739	1168.54492	-1653.16565	-1053.24353	1036.79089	-1675.44604	-981.90198	914.77429	-1668.49353	-1035.65698	915.38104	-1687.98572	-1013.95941	852.34131	-1698.15161	-936.19641	1507.24097	-1201.79578	-948.46393	1320.25732	-1105.04724	-927.44873	1174.6311	-1085.18237	-888.23267	1060.78955	-1067.42334	-834.12085	938.04846	-1089.55652	-875.72034	932.19189	-1050.74927	-831.33411	874.45782	-1051.08936	-885.21899	1000.16058	-1508.51843	-862.13287	980.18848	-1253.96692	-1087.16492	1045.20447	-1409.94971	-1079.21851	1044.22437	-1294.45935	-895.73126	700.84052	-1583.94507	-867.20203	506.47437	-1563.52625	-935.60089	326.86154	-1553.3689	-941.5932	102.0668	-1531.81128	-961.49927	75.72638	-1472.33228	-802.38794	52.25808	-1582.00732	-947.8476	672.82678	-1203.90479	-970.94934	465.49774	-1256.28479	-1027.66956	284.94604	-1255.69519	-1067.46594	96.84789	-1301.29224	-1110.35974	44.77029	-1355.67566	-917.7489	41.97084	-1298.59448	-941.91534	1813.19629	-1358.59216	-2845.83984	1033.71741	3357.17798	NaN	NaN	NaN
